<svg width="27" height="16" viewBox="0 0 27 16" fill="none" xmlns="http://www.w3.org/2000/svg">
<path d="M0.415213 2.016C-7.94729e-08 2.80587 0 3.83987 0 5.90773V10.0923C0 12.1601 -7.94729e-08 13.1941 0.415213 13.984C0.78044 14.6787 1.36323 15.2436 2.08004 15.5976C2.89493 16 3.96171 16 6.0952 16H12.5291C14.6627 16 15.7295 16 16.5443 15.5976C17.2611 15.2436 17.8439 14.6787 18.2091 13.984C18.6244 13.1941 18.6244 12.1601 18.6244 10.0923V5.90773C18.6244 3.83987 18.6244 2.80587 18.2091 2.016C17.8439 1.32133 17.2611 0.7564 16.5443 0.4024C15.7295 -3.17891e-07 14.6627 0 12.5291 0H6.0952C3.96171 0 2.89493 -3.17891e-07 2.08004 0.4024C1.36323 0.7564 0.78044 1.32133 0.415213 2.016Z" fill="url(#paint0_linear_111_62)"/>
<path d="M20.0764 4.53369L24.2334 1.15623C25.1976 0.372893 26.6666 1.03729 26.6666 2.25663V13.7778C26.6666 14.9913 25.2099 15.6577 24.2433 14.8862L20.0877 11.5692C19.6972 11.2574 19.4709 10.7928 19.4709 10.3025V5.79129C19.4709 5.30596 19.6925 4.84543 20.0764 4.53369Z" fill="url(#paint1_linear_111_62)"/>
<defs>
<linearGradient id="paint0_linear_111_62" x1="-2.44445" y1="-1.99998" x2="25.1327" y2="-11.4604" gradientUnits="userSpaceOnUse">
<stop stop-color="#C9E331"/>
<stop offset="1" stop-color="#54A31F"/>
</linearGradient>
<linearGradient id="paint1_linear_111_62" x1="18.5265" y1="-0.981799" x2="30.1823" y2="-2.69852" gradientUnits="userSpaceOnUse">
<stop stop-color="#C9E331"/>
<stop offset="1" stop-color="#54A31F"/>
</linearGradient>
</defs>
</svg>
