<svg width="19" height="19" viewBox="0 0 19 19" fill="none" xmlns="http://www.w3.org/2000/svg">
<path d="M15.8334 9.50004V14.25C15.8334 15.9996 14.4163 17.4167 12.6667 17.4167H6.33335C4.58377 17.4167 3.16669 15.9996 3.16669 14.25V9.50004C3.16669 9.06462 3.52294 8.70837 3.95835 8.70837H5.51794C5.95335 8.70837 6.3096 9.06462 6.3096 9.50004V11.9859C6.3096 12.5717 6.63419 13.11 7.14877 13.3871C7.37835 13.5138 7.63169 13.5771 7.89294 13.5771C8.19377 13.5771 8.4946 13.49 8.75585 13.3159L9.50794 12.825L10.2046 13.2921C10.6875 13.6167 11.305 13.6563 11.8196 13.3792C12.3421 13.1021 12.6667 12.5717 12.6667 11.978V9.50004C12.6667 9.06462 13.0229 8.70837 13.4584 8.70837H15.0417C15.4771 8.70837 15.8334 9.06462 15.8334 9.50004Z" fill="url(#paint0_linear_111_444)"/>
<path d="M17.0209 5.54171V6.33337C17.0209 7.20421 16.6013 7.91671 15.4375 7.91671H3.56252C2.35127 7.91671 1.97919 7.20421 1.97919 6.33337V5.54171C1.97919 4.67087 2.35127 3.95837 3.56252 3.95837H15.4375C16.6013 3.95837 17.0209 4.67087 17.0209 5.54171Z" fill="url(#paint1_linear_111_444)"/>
<path d="M9.21497 3.95835H4.84497C4.57581 3.66543 4.58372 3.21418 4.86872 2.92918L5.99289 1.80501C6.28581 1.5121 6.76872 1.5121 7.06164 1.80501L9.21497 3.95835Z" fill="url(#paint2_linear_111_444)"/>
<path d="M14.1471 3.95835H9.7771L11.9304 1.80501C12.2233 1.5121 12.7063 1.5121 12.9992 1.80501L14.1233 2.92918C14.4083 3.21418 14.4163 3.66543 14.1471 3.95835Z" fill="url(#paint3_linear_111_444)"/>
<path d="M11.0596 8.70837C11.495 8.70837 11.8513 9.06462 11.8513 9.50004V11.978C11.8513 12.6113 11.1467 12.9913 10.6242 12.635L9.91168 12.16C9.65043 11.9859 9.31002 11.9859 9.04085 12.16L8.29668 12.6509C7.77418 12.9992 7.07751 12.6192 7.07751 11.9938V9.50004C7.07751 9.06462 7.43376 8.70837 7.86918 8.70837H11.0596Z" fill="url(#paint4_linear_111_444)"/>
<defs>
<linearGradient id="paint0_linear_111_444" x1="2.52696" y1="5.5417" x2="16.188" y2="6.53355" gradientUnits="userSpaceOnUse">
<stop stop-color="#C9E331"/>
<stop offset="1" stop-color="#54A31F"/>
</linearGradient>
<linearGradient id="paint1_linear_111_444" x1="1.21951" y1="2.51897" x2="16.9612" y2="5.50484" gradientUnits="userSpaceOnUse">
<stop stop-color="#C9E331"/>
<stop offset="1" stop-color="#54A31F"/>
</linearGradient>
<linearGradient id="paint2_linear_111_444" x1="4.41825" y1="0.722407" x2="9.32354" y2="1.19354" gradientUnits="userSpaceOnUse">
<stop stop-color="#C9E331"/>
<stop offset="1" stop-color="#54A31F"/>
</linearGradient>
<linearGradient id="paint3_linear_111_444" x1="9.54649" y1="0.722407" x2="14.4518" y2="1.19354" gradientUnits="userSpaceOnUse">
<stop stop-color="#C9E331"/>
<stop offset="1" stop-color="#54A31F"/>
</linearGradient>
<linearGradient id="paint4_linear_111_444" x1="6.83642" y1="7.22655" x2="11.9944" y2="7.52817" gradientUnits="userSpaceOnUse">
<stop stop-color="#C9E331"/>
<stop offset="1" stop-color="#54A31F"/>
</linearGradient>
</defs>
</svg>
