<svg width="224" height="34" viewBox="0 0 224 34" fill="none" xmlns="http://www.w3.org/2000/svg">
<rect x="32.3125" y="14.875" width="64.8125" height="5.3125" fill="url(#paint0_linear_115_651)"/>
<rect x="125.812" y="14.875" width="64.8125" height="5.3125" fill="url(#paint1_linear_115_651)"/>
<circle cx="17.4375" cy="17" r="17" fill="url(#paint2_linear_115_651)"/>
<circle cx="112" cy="17" r="17" fill="url(#paint3_linear_115_651)"/>
<path d="M13.7188 14.45V11.6875L16.4812 9.5625H18.7125V24.4375H16.2688V12.5375L13.7188 14.45Z" fill="white"/>
<path d="M106.262 24.4375V22.1L111.341 18.5087C112.446 17.7154 113.24 16.9787 113.721 16.2987C114.203 15.6187 114.444 14.8962 114.444 14.1312C114.444 13.3237 114.196 12.6791 113.7 12.1975C113.204 11.7158 112.531 11.475 111.681 11.475C110.633 11.475 109.847 11.9 109.322 12.75C109.096 13.1183 108.926 13.5433 108.812 14.025H106.262C106.39 13.1183 106.666 12.3037 107.091 11.5812C108.097 9.95203 109.627 9.13745 111.681 9.13745C113.254 9.13745 114.529 9.60495 115.506 10.54C116.498 11.4608 116.994 12.6225 116.994 14.025C116.994 15.2433 116.682 16.3412 116.059 17.3187C115.435 18.282 114.437 19.2383 113.062 20.1875L110.937 21.675L109.981 22.1V22.2062L111.256 22.1H116.994V24.4375H106.262Z" fill="white"/>
<path fill-rule="evenodd" clip-rule="evenodd" d="M223.562 17C223.562 26.3888 215.951 34 206.562 34C197.174 34 189.562 26.3888 189.562 17C189.562 7.61116 197.174 0 206.562 0C215.951 0 223.562 7.61116 223.562 17ZM207.172 12.5501C205.518 13.2379 202.214 14.6613 197.258 16.8205C196.453 17.1406 196.031 17.4537 195.993 17.7597C195.928 18.2772 196.576 18.4809 197.458 18.7583C197.578 18.7961 197.703 18.8351 197.83 18.8765C198.698 19.1587 199.866 19.4888 200.473 19.5019C201.023 19.5138 201.638 19.2868 202.316 18.8209C206.947 15.6953 209.337 14.1154 209.487 14.0813C209.593 14.0573 209.739 14.027 209.839 14.1154C209.938 14.2038 209.928 14.3711 209.918 14.416C209.854 14.6897 207.311 17.0541 205.995 18.2776C205.584 18.659 205.293 18.9295 205.234 18.9914C205.101 19.1298 204.965 19.2607 204.834 19.3865C204.028 20.1639 203.423 20.7468 204.868 21.6988C205.562 22.1563 206.117 22.5345 206.671 22.9119C207.277 23.3242 207.88 23.7352 208.661 24.2473C208.86 24.3777 209.05 24.5132 209.236 24.6451C209.94 25.1473 210.573 25.5984 211.354 25.5264C211.809 25.4847 212.278 25.0575 212.516 23.7835C213.079 20.7728 214.186 14.2494 214.442 11.5614C214.465 11.3259 214.437 11.0245 214.414 10.8922C214.391 10.7598 214.344 10.5713 214.172 10.4318C213.968 10.2665 213.654 10.2316 213.513 10.234C212.874 10.2454 211.893 10.5865 207.172 12.5501Z" fill="url(#paint4_linear_115_651)"/>
<defs>
<linearGradient id="paint0_linear_115_651" x1="29.0391" y1="12.9432" x2="80.299" y2="44.1588" gradientUnits="userSpaceOnUse">
<stop stop-color="#C9E331"/>
<stop offset="1" stop-color="#54A31F"/>
</linearGradient>
<linearGradient id="paint1_linear_115_651" x1="122.539" y1="12.9432" x2="173.799" y2="44.1588" gradientUnits="userSpaceOnUse">
<stop stop-color="#C9E331"/>
<stop offset="1" stop-color="#54A31F"/>
</linearGradient>
<linearGradient id="paint2_linear_115_651" x1="-1.27967" y1="-12.3637" x2="35.4912" y2="-10.5282" gradientUnits="userSpaceOnUse">
<stop stop-color="#C9E331"/>
<stop offset="1" stop-color="#54A31F"/>
</linearGradient>
<linearGradient id="paint3_linear_115_651" x1="93.2828" y1="-12.3637" x2="130.054" y2="-10.5282" gradientUnits="userSpaceOnUse">
<stop stop-color="#C9E331"/>
<stop offset="1" stop-color="#54A31F"/>
</linearGradient>
<linearGradient id="paint4_linear_115_651" x1="187.845" y1="-12.3637" x2="224.616" y2="-10.5282" gradientUnits="userSpaceOnUse">
<stop stop-color="#C9E331"/>
<stop offset="1" stop-color="#54A31F"/>
</linearGradient>
</defs>
</svg>
