<svg width="198" height="24" viewBox="0 0 198 24" fill="none" xmlns="http://www.w3.org/2000/svg">
<path d="M195.845 18.6885C194.89 18.6885 194.205 18.1045 194.205 16.9814V3.71826C194.205 2.59521 194.89 2 195.845 2C196.811 2 197.484 2.59521 197.484 3.71826V16.9814C197.484 18.1045 196.811 18.6885 195.845 18.6885Z" fill="white"/>
<path d="M185.086 18.6436C182.795 18.6436 181.054 17.1611 181.054 14.9937C181.054 12.8037 182.739 11.5347 185.749 11.355L188.781 11.1753V10.3779C188.781 9.25488 187.995 8.60352 186.759 8.60352C185.76 8.60352 185.153 8.9292 184.423 9.87256C184.064 10.2769 183.648 10.479 183.121 10.479C182.323 10.479 181.75 9.9624 181.75 9.22119C181.75 8.96289 181.807 8.72705 181.919 8.47998C182.48 7.04248 184.412 6.15527 186.905 6.15527C189.994 6.15527 192.004 7.75 192.004 10.1758V17.0376C192.004 18.127 191.341 18.6885 190.409 18.6885C189.522 18.6885 188.904 18.1943 188.837 17.2285V16.6108H188.77C188.096 17.8911 186.591 18.6436 185.086 18.6436ZM186.164 16.2739C187.602 16.2739 188.781 15.3418 188.781 14.0391V13.1631L186.243 13.3203C185.019 13.4102 184.322 13.9604 184.322 14.814C184.322 15.7124 185.063 16.2739 186.164 16.2739Z" fill="white"/>
<path d="M169.914 18.6885C168.959 18.6885 168.274 18.1045 168.274 16.9814V7.81738C168.274 6.79541 168.869 6.1665 169.857 6.1665C170.846 6.1665 171.497 6.79541 171.497 7.82861V8.50244H171.564C172.205 7.00879 173.417 6.18896 175.271 6.18896C177.943 6.18896 179.448 7.87354 179.448 10.6924V16.9814C179.448 18.1045 178.763 18.6885 177.809 18.6885C176.843 18.6885 176.169 18.1045 176.169 16.9814V11.3774C176.169 9.80518 175.428 8.90674 173.957 8.90674C172.485 8.90674 171.553 9.98486 171.553 11.5459V16.9814C171.553 18.1045 170.879 18.6885 169.914 18.6885Z" fill="white"/>
<path d="M159.233 18.6436C156.942 18.6436 155.202 17.1611 155.202 14.9937C155.202 12.8037 156.886 11.5347 159.896 11.355L162.928 11.1753V10.3779C162.928 9.25488 162.142 8.60352 160.907 8.60352C159.907 8.60352 159.301 8.9292 158.571 9.87256C158.211 10.2769 157.796 10.479 157.268 10.479C156.471 10.479 155.898 9.9624 155.898 9.22119C155.898 8.96289 155.954 8.72705 156.066 8.47998C156.628 7.04248 158.56 6.15527 161.053 6.15527C164.141 6.15527 166.151 7.75 166.151 10.1758V17.0376C166.151 18.127 165.489 18.6885 164.557 18.6885C163.669 18.6885 163.052 18.1943 162.984 17.2285V16.6108H162.917C162.243 17.8911 160.738 18.6436 159.233 18.6436ZM160.312 16.2739C161.749 16.2739 162.928 15.3418 162.928 14.0391V13.1631L160.39 13.3203C159.166 13.4102 158.47 13.9604 158.47 14.814C158.47 15.7124 159.211 16.2739 160.312 16.2739Z" fill="white"/>
<path d="M142.781 18.666C141.714 18.666 141.085 18.0146 141.085 16.9028V3.79688C141.085 2.67383 141.714 2.02246 142.781 2.02246C143.848 2.02246 144.477 2.67383 144.477 3.79688V9.41211H144.578L150.676 2.75244C151.147 2.23584 151.574 2.02246 152.136 2.02246C153.034 2.02246 153.73 2.70752 153.73 3.5835C153.73 4.05518 153.562 4.42578 153.135 4.875L148.666 9.55811L153.528 15.4653C154.034 16.0942 154.258 16.5771 154.258 17.0376C154.258 17.9585 153.551 18.6772 152.619 18.6772C151.922 18.6772 151.451 18.4189 150.923 17.7451L146.094 11.8042L144.477 13.5V16.9028C144.477 18.0146 143.848 18.666 142.781 18.666Z" fill="white"/>
<path d="M118.029 18.6885C117.052 18.6885 116.389 18.0933 116.389 16.9814V7.83984C116.389 6.73926 117.041 6.1665 117.973 6.1665C118.905 6.1665 119.556 6.73926 119.556 7.83984V8.59229H119.624C120.129 7.14355 121.42 6.18896 123.06 6.18896C124.801 6.18896 126.014 7.0874 126.418 8.65967H126.485C127.024 7.14355 128.462 6.18896 130.225 6.18896C132.583 6.18896 134.167 7.80615 134.167 10.2319V16.9814C134.167 18.0933 133.493 18.6885 132.516 18.6885C131.55 18.6885 130.888 18.0933 130.888 16.9814V11.0518C130.888 9.65918 130.191 8.89551 128.922 8.89551C127.676 8.89551 126.856 9.80518 126.856 11.1416V16.9814C126.856 18.0933 126.25 18.6885 125.272 18.6885C124.307 18.6885 123.7 18.0933 123.7 16.9814V10.9507C123.7 9.65918 122.97 8.89551 121.757 8.89551C120.511 8.89551 119.668 9.83887 119.668 11.1865V16.9814C119.668 18.0933 118.995 18.6885 118.029 18.6885Z" fill="white"/>
<path d="M107.349 18.6436C105.058 18.6436 103.317 17.1611 103.317 14.9937C103.317 12.8037 105.001 11.5347 108.011 11.355L111.043 11.1753V10.3779C111.043 9.25488 110.257 8.60352 109.022 8.60352C108.022 8.60352 107.416 8.9292 106.686 9.87256C106.327 10.2769 105.911 10.479 105.383 10.479C104.586 10.479 104.013 9.9624 104.013 9.22119C104.013 8.96289 104.069 8.72705 104.182 8.47998C104.743 7.04248 106.675 6.15527 109.168 6.15527C112.256 6.15527 114.267 7.75 114.267 10.1758V17.0376C114.267 18.127 113.604 18.6885 112.672 18.6885C111.785 18.6885 111.167 18.1943 111.1 17.2285V16.6108H111.032C110.358 17.8911 108.854 18.6436 107.349 18.6436ZM108.427 16.2739C109.864 16.2739 111.043 15.3418 111.043 14.0391V13.1631L108.505 13.3203C107.281 13.4102 106.585 13.9604 106.585 14.814C106.585 15.7124 107.326 16.2739 108.427 16.2739Z" fill="white"/>
<path d="M97.3423 18.6885C96.354 18.6885 95.7026 18.0708 95.7026 16.9814V7.81738C95.7026 6.77295 96.3428 6.1665 97.2861 6.1665C98.207 6.1665 98.8359 6.77295 98.8359 7.81738V8.60352H98.9033C99.2178 7.10986 100.206 6.22266 101.408 6.22266C101.846 6.22266 102.194 6.32373 102.43 6.52588C102.744 6.77295 102.901 7.17725 102.901 7.73877C102.901 8.25537 102.744 8.64844 102.43 8.91797C102.115 9.1875 101.644 9.3335 101.003 9.34473C99.5098 9.36719 98.9819 10.2095 98.9819 11.6357V16.9814C98.9819 18.0708 98.3418 18.6885 97.3423 18.6885Z" fill="white"/>
<path d="M87.4258 22.9785C84.9663 22.9673 83.1357 22.0352 82.3608 20.7661C82.1812 20.4629 82.1138 20.1597 82.1138 19.8564C82.1138 19.1714 82.6304 18.6548 83.4502 18.6548C83.877 18.6548 84.2139 18.7896 84.5845 19.1265C85.4717 19.9688 86.3252 20.4292 87.4146 20.4404C89.2114 20.4517 90.2671 19.4634 90.2671 17.9585V16.0381H90.1997C89.6382 17.3296 88.2344 18.1943 86.4937 18.1943C83.4951 18.1943 81.6084 15.9033 81.6084 12.231C81.6084 8.45752 83.4502 6.22266 86.5498 6.22266C88.2793 6.22266 89.5933 7.13232 90.2222 8.49121H90.2896V7.82861C90.2896 6.7168 90.9971 6.1665 91.9404 6.1665C92.8838 6.1665 93.5688 6.7168 93.5688 7.82861V17.981C93.5688 21.1143 91.3003 23.001 87.4258 22.9785ZM87.6055 15.7573C89.2451 15.7573 90.3008 14.4546 90.3008 12.2759C90.3008 10.1084 89.2451 8.71582 87.6055 8.71582C85.9883 8.71582 84.9663 10.0859 84.9663 12.2646C84.9663 14.4658 85.9771 15.7573 87.6055 15.7573Z" fill="white"/>
<path d="M74.8027 18.7109C71.0405 18.7109 68.8281 16.3862 68.8281 12.4893C68.8281 8.61475 71.0854 6.15527 74.6455 6.15527C78.0596 6.15527 80.3506 8.49121 80.3506 11.7593C80.3506 12.6689 79.834 13.1855 78.9243 13.1855H72.0513V13.3315C72.0513 15.1172 73.1294 16.2852 74.7915 16.2852C75.9932 16.2852 76.7793 15.8809 77.6665 14.8364C78.0146 14.4771 78.3066 14.3535 78.7334 14.3535C79.4409 14.3535 80.0137 14.8027 80.0137 15.5552C80.0137 15.8135 79.9351 16.083 79.7891 16.3525C78.9917 17.835 77.1274 18.7109 74.8027 18.7109ZM72.085 11.1753H77.1948C77.1274 9.60303 76.1167 8.58105 74.6792 8.58105C73.2417 8.58105 72.1973 9.63672 72.085 11.1753Z" fill="white"/>
<path d="M65.4141 18.6885C64.4595 18.6885 63.7744 18.1045 63.7744 16.9814V3.71826C63.7744 2.59521 64.4595 2 65.4141 2C66.3799 2 67.0537 2.59521 67.0537 3.71826V16.9814C67.0537 18.1045 66.3799 18.6885 65.4141 18.6885Z" fill="white"/>
<path d="M56.4521 18.7109C52.6899 18.7109 50.4775 16.3862 50.4775 12.4893C50.4775 8.61475 52.7349 6.15527 56.2949 6.15527C59.709 6.15527 62 8.49121 62 11.7593C62 12.6689 61.4834 13.1855 60.5737 13.1855H53.7007V13.3315C53.7007 15.1172 54.7788 16.2852 56.4409 16.2852C57.6426 16.2852 58.4287 15.8809 59.3159 14.8364C59.6641 14.4771 59.9561 14.3535 60.3828 14.3535C61.0903 14.3535 61.6631 14.8027 61.6631 15.5552C61.6631 15.8135 61.5845 16.083 61.4385 16.3525C60.6411 17.835 58.7769 18.7109 56.4521 18.7109ZM53.7344 11.1753H58.8442C58.7769 9.60303 57.7661 8.58105 56.3286 8.58105C54.8911 8.58105 53.8467 9.63672 53.7344 11.1753Z" fill="white"/>
<path d="M45.5811 18.666C44.5142 18.666 43.8853 18.0146 43.8853 16.9028V5.05469H40.5386C39.6177 5.05469 39 4.52686 39 3.65088C39 2.7749 39.6064 2.24707 40.5386 2.24707H50.6348C51.5557 2.24707 52.1621 2.7749 52.1621 3.65088C52.1621 4.52686 51.5444 5.05469 50.6348 5.05469H47.2769V16.9028C47.2769 18.0146 46.6479 18.666 45.5811 18.666Z" fill="white"/>
<path d="M26.2101 0.193506L1.30177 9.99846C-0.379159 10.621 -0.379159 11.7104 0.996146 12.0217L7.26143 14.0449L9.70641 21.5154C10.012 22.2936 9.85923 22.6048 10.6233 22.6048C11.2345 22.6048 11.5402 22.2936 11.8458 21.9823C11.9986 21.8267 13.3739 20.4259 14.902 18.8696L21.3201 23.6943C22.5426 24.3168 23.3067 24.0055 23.6123 22.6048L27.891 2.21675C28.3494 0.504774 27.2798 -0.42903 26.2101 0.193506ZM23.001 4.86253L11.0817 15.9126L10.6233 21.0485L8.1783 13.578L22.237 4.55126C22.8482 4.08436 23.4595 4.39563 23.001 4.86253Z" fill="white"/>
</svg>
