<svg width="28" height="24" viewBox="0 0 28 24" fill="none" xmlns="http://www.w3.org/2000/svg">
<path d="M26.2101 0.193506L1.30177 9.99846C-0.379159 10.621 -0.379159 11.7104 0.996146 12.0217L7.26143 14.0449L9.70641 21.5154C10.012 22.2936 9.85923 22.6048 10.6233 22.6048C11.2345 22.6048 11.5402 22.2936 11.8458 21.9823C11.9986 21.8267 13.3739 20.4259 14.902 18.8696L21.3201 23.6943C22.5426 24.3168 23.3067 24.0055 23.6123 22.6048L27.891 2.21675C28.3494 0.504774 27.2798 -0.42903 26.2101 0.193506ZM23.001 4.86253L11.0817 15.9126L10.6233 21.0485L8.1783 13.578L22.237 4.55126C22.8482 4.08436 23.4595 4.39563 23.001 4.86253Z" fill="white"/>
</svg>
